M48
; DRILL file {KiCad (5.1.10-1-10_14)} date Wednesday, September 01, 2021 at 11:57:36 AM
; FORMAT={2:4/ absolute / inch / suppress leading zeros}
; #@! TF.CreationDate,2021-09-01T11:57:36-05:00
; #@! TF.GenerationSoftware,Kicad,Pcbnew,(5.1.10-1-10_14)
; #@! TF.FileFunction,Plated,1,2,PTH
FMAT,2
INCH,TZ
T1C0.0394
%
G90
G05
T1
X44000Y-39000
X44000Y-40000
X44000Y-41000
X44000Y-42000
X44000Y-43000
X44000Y-44000
X44000Y-45000
X44000Y-46000
X44000Y-47000
X44000Y-48000
X44000Y-49000
X44000Y-50000
X44000Y-51000
X44000Y-52000
X44000Y-53000
X44000Y-54000
X44000Y-55000
X44000Y-56000
X44000Y-57000
X44000Y-58000
X45000Y-39000
X45000Y-40000
X45000Y-41000
X45000Y-42000
X45000Y-43000
X45000Y-44000
X45000Y-45000
X45000Y-46000
X45000Y-47000
X45000Y-48000
X45000Y-49000
X45000Y-50000
X45000Y-51000
X45000Y-52000
X45000Y-53000
X45000Y-54000
X45000Y-55000
X45000Y-56000
X45000Y-57000
X45000Y-58000
X47000Y-36000
X47000Y-37000
X47000Y-38000
X47000Y-39000
X47000Y-40000
X47000Y-41000
X47000Y-42000
X47000Y-43000
X47000Y-44000
X47000Y-45000
X47000Y-46000
X47000Y-47000
X47000Y-48000
X47000Y-49000
X47000Y-50000
X47000Y-51000
X47000Y-52000
X47000Y-53000
X47000Y-54000
X47000Y-55000
X47000Y-56000
X47000Y-57000
X47000Y-58000
X47000Y-59000
X47000Y-60000
X47000Y-61000
X48000Y-36000
X48000Y-37000
X48000Y-38000
X48000Y-39000
X48000Y-40000
X48000Y-41000
X48000Y-42000
X48000Y-43000
X48000Y-44000
X48000Y-45000
X48000Y-46000
X48000Y-47000
X48000Y-48000
X48000Y-49000
X48000Y-50000
X48000Y-51000
X48000Y-52000
X48000Y-53000
X48000Y-54000
X48000Y-55000
X48000Y-56000
X48000Y-57000
X48000Y-58000
X48000Y-59000
X48000Y-60000
X48000Y-61000
X49000Y-36000
X49000Y-37000
X49000Y-38000
X49000Y-39000
X49000Y-40000
X49000Y-41000
X49000Y-42000
X49000Y-43000
X49000Y-44000
X49000Y-45000
X49000Y-46000
X49000Y-47000
X49000Y-48000
X49000Y-49000
X49000Y-50000
X49000Y-51000
X49000Y-52000
X49000Y-53000
X49000Y-54000
X49000Y-55000
X49000Y-56000
X49000Y-57000
X49000Y-58000
X49000Y-59000
X49000Y-60000
X49000Y-61000
X50000Y-36000
X50000Y-37000
X50000Y-38000
X50000Y-39000
X50000Y-40000
X50000Y-41000
X50000Y-42000
X50000Y-43000
X50000Y-44000
X50000Y-45000
X50000Y-46000
X50000Y-47000
X50000Y-48000
X50000Y-49000
X50000Y-50000
X50000Y-51000
X50000Y-52000
X50000Y-53000
X50000Y-54000
X50000Y-55000
X50000Y-56000
X50000Y-57000
X50000Y-58000
X50000Y-59000
X50000Y-60000
X50000Y-61000
X51000Y-36000
X51000Y-37000
X51000Y-38000
X51000Y-39000
X51000Y-40000
X51000Y-41000
X51000Y-42000
X51000Y-43000
X51000Y-44000
X51000Y-45000
X51000Y-46000
X51000Y-47000
X51000Y-48000
X51000Y-49000
X51000Y-50000
X51000Y-51000
X51000Y-52000
X51000Y-53000
X51000Y-54000
X51000Y-55000
X51000Y-56000
X51000Y-57000
X51000Y-58000
X51000Y-59000
X51000Y-60000
X51000Y-61000
X52000Y-36000
X52000Y-37000
X52000Y-38000
X52000Y-39000
X52000Y-40000
X52000Y-41000
X52000Y-42000
X52000Y-43000
X52000Y-44000
X52000Y-45000
X52000Y-46000
X52000Y-47000
X52000Y-48000
X52000Y-49000
X52000Y-50000
X52000Y-51000
X52000Y-52000
X52000Y-53000
X52000Y-54000
X52000Y-55000
X52000Y-56000
X52000Y-57000
X52000Y-58000
X52000Y-59000
X52000Y-60000
X52000Y-61000
X53000Y-36000
X53000Y-37000
X53000Y-38000
X53000Y-39000
X53000Y-40000
X53000Y-41000
X53000Y-42000
X53000Y-43000
X53000Y-44000
X53000Y-45000
X53000Y-46000
X53000Y-47000
X53000Y-48000
X53000Y-49000
X53000Y-50000
X53000Y-51000
X53000Y-52000
X53000Y-53000
X53000Y-54000
X53000Y-55000
X53000Y-56000
X53000Y-57000
X53000Y-58000
X53000Y-59000
X53000Y-60000
X53000Y-61000
X54000Y-36000
X54000Y-37000
X54000Y-38000
X54000Y-39000
X54000Y-40000
X54000Y-41000
X54000Y-42000
X54000Y-43000
X54000Y-44000
X54000Y-45000
X54000Y-46000
X54000Y-47000
X54000Y-48000
X54000Y-49000
X54000Y-50000
X54000Y-51000
X54000Y-52000
X54000Y-53000
X54000Y-54000
X54000Y-55000
X54000Y-56000
X54000Y-57000
X54000Y-58000
X54000Y-59000
X54000Y-60000
X54000Y-61000
X55000Y-36000
X55000Y-37000
X55000Y-38000
X55000Y-39000
X55000Y-40000
X55000Y-41000
X55000Y-42000
X55000Y-43000
X55000Y-44000
X55000Y-45000
X55000Y-46000
X55000Y-47000
X55000Y-48000
X55000Y-49000
X55000Y-50000
X55000Y-51000
X55000Y-52000
X55000Y-53000
X55000Y-54000
X55000Y-55000
X55000Y-56000
X55000Y-57000
X55000Y-58000
X55000Y-59000
X55000Y-60000
X55000Y-61000
X56000Y-36000
X56000Y-37000
X56000Y-38000
X56000Y-39000
X56000Y-40000
X56000Y-41000
X56000Y-42000
X56000Y-43000
X56000Y-44000
X56000Y-45000
X56000Y-46000
X56000Y-47000
X56000Y-48000
X56000Y-49000
X56000Y-50000
X56000Y-51000
X56000Y-52000
X56000Y-53000
X56000Y-54000
X56000Y-55000
X56000Y-56000
X56000Y-57000
X56000Y-58000
X56000Y-59000
X56000Y-60000
X56000Y-61000
X57000Y-36000
X57000Y-37000
X57000Y-38000
X57000Y-39000
X57000Y-40000
X57000Y-41000
X57000Y-42000
X57000Y-43000
X57000Y-44000
X57000Y-45000
X57000Y-46000
X57000Y-47000
X57000Y-48000
X57000Y-49000
X57000Y-50000
X57000Y-51000
X57000Y-52000
X57000Y-53000
X57000Y-54000
X57000Y-55000
X57000Y-56000
X57000Y-57000
X57000Y-58000
X57000Y-59000
X57000Y-60000
X57000Y-61000
X58000Y-36000
X58000Y-37000
X58000Y-38000
X58000Y-39000
X58000Y-40000
X58000Y-41000
X58000Y-42000
X58000Y-43000
X58000Y-44000
X58000Y-45000
X58000Y-46000
X58000Y-47000
X58000Y-48000
X58000Y-49000
X58000Y-50000
X58000Y-51000
X58000Y-52000
X58000Y-53000
X58000Y-54000
X58000Y-55000
X58000Y-56000
X58000Y-57000
X58000Y-58000
X58000Y-59000
X58000Y-60000
X58000Y-61000
X60000Y-39000
X60000Y-40000
X60000Y-41000
X60000Y-42000
X60000Y-43000
X60000Y-44000
X60000Y-45000
X60000Y-46000
X60000Y-47000
X60000Y-48000
X60000Y-49000
X60000Y-50000
X60000Y-51000
X60000Y-52000
X60000Y-53000
X60000Y-54000
X60000Y-55000
X60000Y-56000
X60000Y-57000
X60000Y-58000
X61000Y-39000
X61000Y-40000
X61000Y-41000
X61000Y-42000
X61000Y-43000
X61000Y-44000
X61000Y-45000
X61000Y-46000
X61000Y-47000
X61000Y-48000
X61000Y-49000
X61000Y-50000
X61000Y-51000
X61000Y-52000
X61000Y-53000
X61000Y-54000
X61000Y-55000
X61000Y-56000
X61000Y-57000
X61000Y-58000
T0
M30
