%TF.GenerationSoftware,KiCad,Pcbnew,(5.1.10-1-10_14)*%
%TF.CreationDate,2021-09-01T11:57:48-05:00*%
%TF.ProjectId,soldering,736f6c64-6572-4696-9e67-2e6b69636164,rev?*%
%TF.SameCoordinates,Original*%
%TF.FileFunction,Legend,Top*%
%TF.FilePolarity,Positive*%
%FSLAX46Y46*%
G04 Gerber Fmt 4.6, Leading zero omitted, Abs format (unit mm)*
G04 Created by KiCad (PCBNEW (5.1.10-1-10_14)) date 2021-09-01 11:57:48*
%MOMM*%
%LPD*%
G01*
G04 APERTURE LIST*
%ADD10C,0.150000*%
%ADD11C,0.120000*%
G04 APERTURE END LIST*
D10*
X154559047Y-149931428D02*
X155320952Y-149931428D01*
X152019047Y-149931428D02*
X152780952Y-149931428D01*
X152400000Y-150312380D02*
X152400000Y-149550476D01*
X113919047Y-149931428D02*
X114680952Y-149931428D01*
X111379047Y-149931428D02*
X112140952Y-149931428D01*
X111760000Y-150312380D02*
X111760000Y-149550476D01*
D11*
%TO.C,REF\u002A\u002A*%
X156140000Y-99060000D02*
G75*
G03*
X156140000Y-99060000I-1200000J0D01*
G01*
X153600000Y-99060000D02*
G75*
G03*
X153600000Y-99060000I-1200000J0D01*
G01*
X112960000Y-99060000D02*
G75*
G03*
X112960000Y-99060000I-1200000J0D01*
G01*
X115500000Y-99060000D02*
G75*
G03*
X115500000Y-99060000I-1200000J0D01*
G01*
X148520000Y-104140000D02*
G75*
G03*
X148520000Y-104140000I-1200000J0D01*
G01*
X145980000Y-106680000D02*
G75*
G03*
X145980000Y-106680000I-1200000J0D01*
G01*
X145980000Y-154940000D02*
G75*
G03*
X145980000Y-154940000I-1200000J0D01*
G01*
X148520000Y-154940000D02*
G75*
G03*
X148520000Y-154940000I-1200000J0D01*
G01*
X148520000Y-147320000D02*
G75*
G03*
X148520000Y-147320000I-1200000J0D01*
G01*
X145980000Y-132080000D02*
G75*
G03*
X145980000Y-132080000I-1200000J0D01*
G01*
X148520000Y-142240000D02*
G75*
G03*
X148520000Y-142240000I-1200000J0D01*
G01*
X148520000Y-99060000D02*
G75*
G03*
X148520000Y-99060000I-1200000J0D01*
G01*
X148520000Y-91440000D02*
G75*
G03*
X148520000Y-91440000I-1200000J0D01*
G01*
X148520000Y-101600000D02*
G75*
G03*
X148520000Y-101600000I-1200000J0D01*
G01*
X145980000Y-116840000D02*
G75*
G03*
X145980000Y-116840000I-1200000J0D01*
G01*
X148520000Y-119380000D02*
G75*
G03*
X148520000Y-119380000I-1200000J0D01*
G01*
X148520000Y-109220000D02*
G75*
G03*
X148520000Y-109220000I-1200000J0D01*
G01*
X145980000Y-111760000D02*
G75*
G03*
X145980000Y-111760000I-1200000J0D01*
G01*
X148520000Y-114300000D02*
G75*
G03*
X148520000Y-114300000I-1200000J0D01*
G01*
X143440000Y-152400000D02*
G75*
G03*
X143440000Y-152400000I-1200000J0D01*
G01*
X143440000Y-142240000D02*
G75*
G03*
X143440000Y-142240000I-1200000J0D01*
G01*
X140900000Y-149860000D02*
G75*
G03*
X140900000Y-149860000I-1200000J0D01*
G01*
X140900000Y-152400000D02*
G75*
G03*
X140900000Y-152400000I-1200000J0D01*
G01*
X145980000Y-101600000D02*
G75*
G03*
X145980000Y-101600000I-1200000J0D01*
G01*
X145980000Y-152400000D02*
G75*
G03*
X145980000Y-152400000I-1200000J0D01*
G01*
X143440000Y-116840000D02*
G75*
G03*
X143440000Y-116840000I-1200000J0D01*
G01*
X140900000Y-104140000D02*
G75*
G03*
X140900000Y-104140000I-1200000J0D01*
G01*
X143440000Y-106680000D02*
G75*
G03*
X143440000Y-106680000I-1200000J0D01*
G01*
X143440000Y-132080000D02*
G75*
G03*
X143440000Y-132080000I-1200000J0D01*
G01*
X140900000Y-144780000D02*
G75*
G03*
X140900000Y-144780000I-1200000J0D01*
G01*
X148520000Y-124460000D02*
G75*
G03*
X148520000Y-124460000I-1200000J0D01*
G01*
X145980000Y-99060000D02*
G75*
G03*
X145980000Y-99060000I-1200000J0D01*
G01*
X145980000Y-91440000D02*
G75*
G03*
X145980000Y-91440000I-1200000J0D01*
G01*
X148520000Y-111760000D02*
G75*
G03*
X148520000Y-111760000I-1200000J0D01*
G01*
X148520000Y-129540000D02*
G75*
G03*
X148520000Y-129540000I-1200000J0D01*
G01*
X148520000Y-93980000D02*
G75*
G03*
X148520000Y-93980000I-1200000J0D01*
G01*
X148520000Y-134620000D02*
G75*
G03*
X148520000Y-134620000I-1200000J0D01*
G01*
X145980000Y-119380000D02*
G75*
G03*
X145980000Y-119380000I-1200000J0D01*
G01*
X145980000Y-114300000D02*
G75*
G03*
X145980000Y-114300000I-1200000J0D01*
G01*
X148520000Y-127000000D02*
G75*
G03*
X148520000Y-127000000I-1200000J0D01*
G01*
X145980000Y-124460000D02*
G75*
G03*
X145980000Y-124460000I-1200000J0D01*
G01*
X145980000Y-96520000D02*
G75*
G03*
X145980000Y-96520000I-1200000J0D01*
G01*
X145980000Y-127000000D02*
G75*
G03*
X145980000Y-127000000I-1200000J0D01*
G01*
X140900000Y-154940000D02*
G75*
G03*
X140900000Y-154940000I-1200000J0D01*
G01*
X143440000Y-154940000D02*
G75*
G03*
X143440000Y-154940000I-1200000J0D01*
G01*
X148520000Y-121920000D02*
G75*
G03*
X148520000Y-121920000I-1200000J0D01*
G01*
X145980000Y-129540000D02*
G75*
G03*
X145980000Y-129540000I-1200000J0D01*
G01*
X145980000Y-109220000D02*
G75*
G03*
X145980000Y-109220000I-1200000J0D01*
G01*
X145980000Y-93980000D02*
G75*
G03*
X145980000Y-93980000I-1200000J0D01*
G01*
X148520000Y-96520000D02*
G75*
G03*
X148520000Y-96520000I-1200000J0D01*
G01*
X148520000Y-139700000D02*
G75*
G03*
X148520000Y-139700000I-1200000J0D01*
G01*
X145980000Y-149860000D02*
G75*
G03*
X145980000Y-149860000I-1200000J0D01*
G01*
X145980000Y-121920000D02*
G75*
G03*
X145980000Y-121920000I-1200000J0D01*
G01*
X148520000Y-137160000D02*
G75*
G03*
X148520000Y-137160000I-1200000J0D01*
G01*
X145980000Y-137160000D02*
G75*
G03*
X145980000Y-137160000I-1200000J0D01*
G01*
X145980000Y-134620000D02*
G75*
G03*
X145980000Y-134620000I-1200000J0D01*
G01*
X148520000Y-149860000D02*
G75*
G03*
X148520000Y-149860000I-1200000J0D01*
G01*
X145980000Y-142240000D02*
G75*
G03*
X145980000Y-142240000I-1200000J0D01*
G01*
X148520000Y-116840000D02*
G75*
G03*
X148520000Y-116840000I-1200000J0D01*
G01*
X145980000Y-104140000D02*
G75*
G03*
X145980000Y-104140000I-1200000J0D01*
G01*
X148520000Y-106680000D02*
G75*
G03*
X148520000Y-106680000I-1200000J0D01*
G01*
X148520000Y-132080000D02*
G75*
G03*
X148520000Y-132080000I-1200000J0D01*
G01*
X145980000Y-144780000D02*
G75*
G03*
X145980000Y-144780000I-1200000J0D01*
G01*
X145980000Y-147320000D02*
G75*
G03*
X145980000Y-147320000I-1200000J0D01*
G01*
X148520000Y-144780000D02*
G75*
G03*
X148520000Y-144780000I-1200000J0D01*
G01*
X145980000Y-139700000D02*
G75*
G03*
X145980000Y-139700000I-1200000J0D01*
G01*
X148520000Y-152400000D02*
G75*
G03*
X148520000Y-152400000I-1200000J0D01*
G01*
X143440000Y-147320000D02*
G75*
G03*
X143440000Y-147320000I-1200000J0D01*
G01*
X143440000Y-139700000D02*
G75*
G03*
X143440000Y-139700000I-1200000J0D01*
G01*
X143440000Y-144780000D02*
G75*
G03*
X143440000Y-144780000I-1200000J0D01*
G01*
X140900000Y-139700000D02*
G75*
G03*
X140900000Y-139700000I-1200000J0D01*
G01*
X140900000Y-147320000D02*
G75*
G03*
X140900000Y-147320000I-1200000J0D01*
G01*
X140900000Y-142240000D02*
G75*
G03*
X140900000Y-142240000I-1200000J0D01*
G01*
X143440000Y-149860000D02*
G75*
G03*
X143440000Y-149860000I-1200000J0D01*
G01*
X140900000Y-96520000D02*
G75*
G03*
X140900000Y-96520000I-1200000J0D01*
G01*
X140900000Y-106680000D02*
G75*
G03*
X140900000Y-106680000I-1200000J0D01*
G01*
X143440000Y-137160000D02*
G75*
G03*
X143440000Y-137160000I-1200000J0D01*
G01*
X140900000Y-93980000D02*
G75*
G03*
X140900000Y-93980000I-1200000J0D01*
G01*
X140900000Y-134620000D02*
G75*
G03*
X140900000Y-134620000I-1200000J0D01*
G01*
X140900000Y-132080000D02*
G75*
G03*
X140900000Y-132080000I-1200000J0D01*
G01*
X140900000Y-109220000D02*
G75*
G03*
X140900000Y-109220000I-1200000J0D01*
G01*
X140900000Y-101600000D02*
G75*
G03*
X140900000Y-101600000I-1200000J0D01*
G01*
X143440000Y-91440000D02*
G75*
G03*
X143440000Y-91440000I-1200000J0D01*
G01*
X140900000Y-121920000D02*
G75*
G03*
X140900000Y-121920000I-1200000J0D01*
G01*
X143440000Y-99060000D02*
G75*
G03*
X143440000Y-99060000I-1200000J0D01*
G01*
X143440000Y-96520000D02*
G75*
G03*
X143440000Y-96520000I-1200000J0D01*
G01*
X143440000Y-104140000D02*
G75*
G03*
X143440000Y-104140000I-1200000J0D01*
G01*
X140900000Y-137160000D02*
G75*
G03*
X140900000Y-137160000I-1200000J0D01*
G01*
X143440000Y-121920000D02*
G75*
G03*
X143440000Y-121920000I-1200000J0D01*
G01*
X140900000Y-129540000D02*
G75*
G03*
X140900000Y-129540000I-1200000J0D01*
G01*
X140900000Y-127000000D02*
G75*
G03*
X140900000Y-127000000I-1200000J0D01*
G01*
X143440000Y-93980000D02*
G75*
G03*
X143440000Y-93980000I-1200000J0D01*
G01*
X143440000Y-111760000D02*
G75*
G03*
X143440000Y-111760000I-1200000J0D01*
G01*
X143440000Y-129540000D02*
G75*
G03*
X143440000Y-129540000I-1200000J0D01*
G01*
X143440000Y-127000000D02*
G75*
G03*
X143440000Y-127000000I-1200000J0D01*
G01*
X140900000Y-124460000D02*
G75*
G03*
X140900000Y-124460000I-1200000J0D01*
G01*
X143440000Y-109220000D02*
G75*
G03*
X143440000Y-109220000I-1200000J0D01*
G01*
X140900000Y-99060000D02*
G75*
G03*
X140900000Y-99060000I-1200000J0D01*
G01*
X140900000Y-91440000D02*
G75*
G03*
X140900000Y-91440000I-1200000J0D01*
G01*
X143440000Y-101600000D02*
G75*
G03*
X143440000Y-101600000I-1200000J0D01*
G01*
X143440000Y-114300000D02*
G75*
G03*
X143440000Y-114300000I-1200000J0D01*
G01*
X140900000Y-116840000D02*
G75*
G03*
X140900000Y-116840000I-1200000J0D01*
G01*
X143440000Y-119380000D02*
G75*
G03*
X143440000Y-119380000I-1200000J0D01*
G01*
X143440000Y-124460000D02*
G75*
G03*
X143440000Y-124460000I-1200000J0D01*
G01*
X140900000Y-111760000D02*
G75*
G03*
X140900000Y-111760000I-1200000J0D01*
G01*
X140900000Y-114300000D02*
G75*
G03*
X140900000Y-114300000I-1200000J0D01*
G01*
X143440000Y-134620000D02*
G75*
G03*
X143440000Y-134620000I-1200000J0D01*
G01*
X140900000Y-119380000D02*
G75*
G03*
X140900000Y-119380000I-1200000J0D01*
G01*
X133280000Y-134620000D02*
G75*
G03*
X133280000Y-134620000I-1200000J0D01*
G01*
X130740000Y-119380000D02*
G75*
G03*
X130740000Y-119380000I-1200000J0D01*
G01*
X130740000Y-114300000D02*
G75*
G03*
X130740000Y-114300000I-1200000J0D01*
G01*
X130740000Y-127000000D02*
G75*
G03*
X130740000Y-127000000I-1200000J0D01*
G01*
X133280000Y-121920000D02*
G75*
G03*
X133280000Y-121920000I-1200000J0D01*
G01*
X130740000Y-129540000D02*
G75*
G03*
X130740000Y-129540000I-1200000J0D01*
G01*
X133280000Y-101600000D02*
G75*
G03*
X133280000Y-101600000I-1200000J0D01*
G01*
X133280000Y-109220000D02*
G75*
G03*
X133280000Y-109220000I-1200000J0D01*
G01*
X130740000Y-111760000D02*
G75*
G03*
X130740000Y-111760000I-1200000J0D01*
G01*
X133280000Y-114300000D02*
G75*
G03*
X133280000Y-114300000I-1200000J0D01*
G01*
X130740000Y-116840000D02*
G75*
G03*
X130740000Y-116840000I-1200000J0D01*
G01*
X133280000Y-119380000D02*
G75*
G03*
X133280000Y-119380000I-1200000J0D01*
G01*
X133280000Y-124460000D02*
G75*
G03*
X133280000Y-124460000I-1200000J0D01*
G01*
X130740000Y-99060000D02*
G75*
G03*
X130740000Y-99060000I-1200000J0D01*
G01*
X130740000Y-91440000D02*
G75*
G03*
X130740000Y-91440000I-1200000J0D01*
G01*
X133280000Y-93980000D02*
G75*
G03*
X133280000Y-93980000I-1200000J0D01*
G01*
X133280000Y-111760000D02*
G75*
G03*
X133280000Y-111760000I-1200000J0D01*
G01*
X133280000Y-129540000D02*
G75*
G03*
X133280000Y-129540000I-1200000J0D01*
G01*
X133280000Y-127000000D02*
G75*
G03*
X133280000Y-127000000I-1200000J0D01*
G01*
X130740000Y-124460000D02*
G75*
G03*
X130740000Y-124460000I-1200000J0D01*
G01*
X130740000Y-96520000D02*
G75*
G03*
X130740000Y-96520000I-1200000J0D01*
G01*
X133280000Y-99060000D02*
G75*
G03*
X133280000Y-99060000I-1200000J0D01*
G01*
X130740000Y-93980000D02*
G75*
G03*
X130740000Y-93980000I-1200000J0D01*
G01*
X133280000Y-96520000D02*
G75*
G03*
X133280000Y-96520000I-1200000J0D01*
G01*
X133280000Y-104140000D02*
G75*
G03*
X133280000Y-104140000I-1200000J0D01*
G01*
X130740000Y-106680000D02*
G75*
G03*
X130740000Y-106680000I-1200000J0D01*
G01*
X130740000Y-132080000D02*
G75*
G03*
X130740000Y-132080000I-1200000J0D01*
G01*
X130740000Y-109220000D02*
G75*
G03*
X130740000Y-109220000I-1200000J0D01*
G01*
X130740000Y-101600000D02*
G75*
G03*
X130740000Y-101600000I-1200000J0D01*
G01*
X133280000Y-91440000D02*
G75*
G03*
X133280000Y-91440000I-1200000J0D01*
G01*
X130740000Y-121920000D02*
G75*
G03*
X130740000Y-121920000I-1200000J0D01*
G01*
X133280000Y-137160000D02*
G75*
G03*
X133280000Y-137160000I-1200000J0D01*
G01*
X130740000Y-137160000D02*
G75*
G03*
X130740000Y-137160000I-1200000J0D01*
G01*
X130740000Y-134620000D02*
G75*
G03*
X130740000Y-134620000I-1200000J0D01*
G01*
X133280000Y-149860000D02*
G75*
G03*
X133280000Y-149860000I-1200000J0D01*
G01*
X130740000Y-142240000D02*
G75*
G03*
X130740000Y-142240000I-1200000J0D01*
G01*
X133280000Y-116840000D02*
G75*
G03*
X133280000Y-116840000I-1200000J0D01*
G01*
X130740000Y-104140000D02*
G75*
G03*
X130740000Y-104140000I-1200000J0D01*
G01*
X133280000Y-106680000D02*
G75*
G03*
X133280000Y-106680000I-1200000J0D01*
G01*
X133280000Y-132080000D02*
G75*
G03*
X133280000Y-132080000I-1200000J0D01*
G01*
X130740000Y-144780000D02*
G75*
G03*
X130740000Y-144780000I-1200000J0D01*
G01*
X138360000Y-124460000D02*
G75*
G03*
X138360000Y-124460000I-1200000J0D01*
G01*
X135820000Y-99060000D02*
G75*
G03*
X135820000Y-99060000I-1200000J0D01*
G01*
X135820000Y-91440000D02*
G75*
G03*
X135820000Y-91440000I-1200000J0D01*
G01*
X138360000Y-111760000D02*
G75*
G03*
X138360000Y-111760000I-1200000J0D01*
G01*
X138360000Y-129540000D02*
G75*
G03*
X138360000Y-129540000I-1200000J0D01*
G01*
X138360000Y-93980000D02*
G75*
G03*
X138360000Y-93980000I-1200000J0D01*
G01*
X138360000Y-134620000D02*
G75*
G03*
X138360000Y-134620000I-1200000J0D01*
G01*
X135820000Y-119380000D02*
G75*
G03*
X135820000Y-119380000I-1200000J0D01*
G01*
X135820000Y-114300000D02*
G75*
G03*
X135820000Y-114300000I-1200000J0D01*
G01*
X138360000Y-127000000D02*
G75*
G03*
X138360000Y-127000000I-1200000J0D01*
G01*
X135820000Y-124460000D02*
G75*
G03*
X135820000Y-124460000I-1200000J0D01*
G01*
X135820000Y-96520000D02*
G75*
G03*
X135820000Y-96520000I-1200000J0D01*
G01*
X135820000Y-127000000D02*
G75*
G03*
X135820000Y-127000000I-1200000J0D01*
G01*
X138360000Y-121920000D02*
G75*
G03*
X138360000Y-121920000I-1200000J0D01*
G01*
X135820000Y-129540000D02*
G75*
G03*
X135820000Y-129540000I-1200000J0D01*
G01*
X138360000Y-101600000D02*
G75*
G03*
X138360000Y-101600000I-1200000J0D01*
G01*
X135820000Y-116840000D02*
G75*
G03*
X135820000Y-116840000I-1200000J0D01*
G01*
X138360000Y-119380000D02*
G75*
G03*
X138360000Y-119380000I-1200000J0D01*
G01*
X138360000Y-109220000D02*
G75*
G03*
X138360000Y-109220000I-1200000J0D01*
G01*
X135820000Y-111760000D02*
G75*
G03*
X135820000Y-111760000I-1200000J0D01*
G01*
X138360000Y-114300000D02*
G75*
G03*
X138360000Y-114300000I-1200000J0D01*
G01*
X135820000Y-109220000D02*
G75*
G03*
X135820000Y-109220000I-1200000J0D01*
G01*
X135820000Y-101600000D02*
G75*
G03*
X135820000Y-101600000I-1200000J0D01*
G01*
X135820000Y-152400000D02*
G75*
G03*
X135820000Y-152400000I-1200000J0D01*
G01*
X138360000Y-104140000D02*
G75*
G03*
X138360000Y-104140000I-1200000J0D01*
G01*
X135820000Y-106680000D02*
G75*
G03*
X135820000Y-106680000I-1200000J0D01*
G01*
X135820000Y-154940000D02*
G75*
G03*
X135820000Y-154940000I-1200000J0D01*
G01*
X138360000Y-154940000D02*
G75*
G03*
X138360000Y-154940000I-1200000J0D01*
G01*
X138360000Y-147320000D02*
G75*
G03*
X138360000Y-147320000I-1200000J0D01*
G01*
X135820000Y-132080000D02*
G75*
G03*
X135820000Y-132080000I-1200000J0D01*
G01*
X138360000Y-142240000D02*
G75*
G03*
X138360000Y-142240000I-1200000J0D01*
G01*
X138360000Y-99060000D02*
G75*
G03*
X138360000Y-99060000I-1200000J0D01*
G01*
X135820000Y-93980000D02*
G75*
G03*
X135820000Y-93980000I-1200000J0D01*
G01*
X138360000Y-96520000D02*
G75*
G03*
X138360000Y-96520000I-1200000J0D01*
G01*
X138360000Y-139700000D02*
G75*
G03*
X138360000Y-139700000I-1200000J0D01*
G01*
X135820000Y-121920000D02*
G75*
G03*
X135820000Y-121920000I-1200000J0D01*
G01*
X138360000Y-137160000D02*
G75*
G03*
X138360000Y-137160000I-1200000J0D01*
G01*
X135820000Y-137160000D02*
G75*
G03*
X135820000Y-137160000I-1200000J0D01*
G01*
X135820000Y-134620000D02*
G75*
G03*
X135820000Y-134620000I-1200000J0D01*
G01*
X138360000Y-149860000D02*
G75*
G03*
X138360000Y-149860000I-1200000J0D01*
G01*
X135820000Y-142240000D02*
G75*
G03*
X135820000Y-142240000I-1200000J0D01*
G01*
X138360000Y-116840000D02*
G75*
G03*
X138360000Y-116840000I-1200000J0D01*
G01*
X135820000Y-104140000D02*
G75*
G03*
X135820000Y-104140000I-1200000J0D01*
G01*
X138360000Y-106680000D02*
G75*
G03*
X138360000Y-106680000I-1200000J0D01*
G01*
X138360000Y-132080000D02*
G75*
G03*
X138360000Y-132080000I-1200000J0D01*
G01*
X135820000Y-144780000D02*
G75*
G03*
X135820000Y-144780000I-1200000J0D01*
G01*
X135820000Y-147320000D02*
G75*
G03*
X135820000Y-147320000I-1200000J0D01*
G01*
X138360000Y-144780000D02*
G75*
G03*
X138360000Y-144780000I-1200000J0D01*
G01*
X135820000Y-139700000D02*
G75*
G03*
X135820000Y-139700000I-1200000J0D01*
G01*
X138360000Y-152400000D02*
G75*
G03*
X138360000Y-152400000I-1200000J0D01*
G01*
X138360000Y-91440000D02*
G75*
G03*
X138360000Y-91440000I-1200000J0D01*
G01*
X135820000Y-149860000D02*
G75*
G03*
X135820000Y-149860000I-1200000J0D01*
G01*
X130740000Y-154940000D02*
G75*
G03*
X130740000Y-154940000I-1200000J0D01*
G01*
X133280000Y-154940000D02*
G75*
G03*
X133280000Y-154940000I-1200000J0D01*
G01*
X133280000Y-147320000D02*
G75*
G03*
X133280000Y-147320000I-1200000J0D01*
G01*
X133280000Y-139700000D02*
G75*
G03*
X133280000Y-139700000I-1200000J0D01*
G01*
X133280000Y-144780000D02*
G75*
G03*
X133280000Y-144780000I-1200000J0D01*
G01*
X130740000Y-139700000D02*
G75*
G03*
X130740000Y-139700000I-1200000J0D01*
G01*
X130740000Y-147320000D02*
G75*
G03*
X130740000Y-147320000I-1200000J0D01*
G01*
X133280000Y-152400000D02*
G75*
G03*
X133280000Y-152400000I-1200000J0D01*
G01*
X133280000Y-142240000D02*
G75*
G03*
X133280000Y-142240000I-1200000J0D01*
G01*
X130740000Y-149860000D02*
G75*
G03*
X130740000Y-149860000I-1200000J0D01*
G01*
X130740000Y-152400000D02*
G75*
G03*
X130740000Y-152400000I-1200000J0D01*
G01*
X128200000Y-134620000D02*
G75*
G03*
X128200000Y-134620000I-1200000J0D01*
G01*
X125660000Y-119380000D02*
G75*
G03*
X125660000Y-119380000I-1200000J0D01*
G01*
X125660000Y-114300000D02*
G75*
G03*
X125660000Y-114300000I-1200000J0D01*
G01*
X125660000Y-127000000D02*
G75*
G03*
X125660000Y-127000000I-1200000J0D01*
G01*
X128200000Y-121920000D02*
G75*
G03*
X128200000Y-121920000I-1200000J0D01*
G01*
X125660000Y-129540000D02*
G75*
G03*
X125660000Y-129540000I-1200000J0D01*
G01*
X128200000Y-101600000D02*
G75*
G03*
X128200000Y-101600000I-1200000J0D01*
G01*
X128200000Y-109220000D02*
G75*
G03*
X128200000Y-109220000I-1200000J0D01*
G01*
X125660000Y-111760000D02*
G75*
G03*
X125660000Y-111760000I-1200000J0D01*
G01*
X128200000Y-114300000D02*
G75*
G03*
X128200000Y-114300000I-1200000J0D01*
G01*
X125660000Y-116840000D02*
G75*
G03*
X125660000Y-116840000I-1200000J0D01*
G01*
X128200000Y-119380000D02*
G75*
G03*
X128200000Y-119380000I-1200000J0D01*
G01*
X128200000Y-124460000D02*
G75*
G03*
X128200000Y-124460000I-1200000J0D01*
G01*
X125660000Y-99060000D02*
G75*
G03*
X125660000Y-99060000I-1200000J0D01*
G01*
X125660000Y-91440000D02*
G75*
G03*
X125660000Y-91440000I-1200000J0D01*
G01*
X128200000Y-93980000D02*
G75*
G03*
X128200000Y-93980000I-1200000J0D01*
G01*
X128200000Y-111760000D02*
G75*
G03*
X128200000Y-111760000I-1200000J0D01*
G01*
X128200000Y-129540000D02*
G75*
G03*
X128200000Y-129540000I-1200000J0D01*
G01*
X128200000Y-127000000D02*
G75*
G03*
X128200000Y-127000000I-1200000J0D01*
G01*
X125660000Y-124460000D02*
G75*
G03*
X125660000Y-124460000I-1200000J0D01*
G01*
X125660000Y-96520000D02*
G75*
G03*
X125660000Y-96520000I-1200000J0D01*
G01*
X128200000Y-99060000D02*
G75*
G03*
X128200000Y-99060000I-1200000J0D01*
G01*
X125660000Y-93980000D02*
G75*
G03*
X125660000Y-93980000I-1200000J0D01*
G01*
X128200000Y-96520000D02*
G75*
G03*
X128200000Y-96520000I-1200000J0D01*
G01*
X128200000Y-104140000D02*
G75*
G03*
X128200000Y-104140000I-1200000J0D01*
G01*
X125660000Y-106680000D02*
G75*
G03*
X125660000Y-106680000I-1200000J0D01*
G01*
X125660000Y-132080000D02*
G75*
G03*
X125660000Y-132080000I-1200000J0D01*
G01*
X125660000Y-109220000D02*
G75*
G03*
X125660000Y-109220000I-1200000J0D01*
G01*
X125660000Y-101600000D02*
G75*
G03*
X125660000Y-101600000I-1200000J0D01*
G01*
X128200000Y-91440000D02*
G75*
G03*
X128200000Y-91440000I-1200000J0D01*
G01*
X125660000Y-121920000D02*
G75*
G03*
X125660000Y-121920000I-1200000J0D01*
G01*
X128200000Y-137160000D02*
G75*
G03*
X128200000Y-137160000I-1200000J0D01*
G01*
X125660000Y-137160000D02*
G75*
G03*
X125660000Y-137160000I-1200000J0D01*
G01*
X125660000Y-134620000D02*
G75*
G03*
X125660000Y-134620000I-1200000J0D01*
G01*
X128200000Y-149860000D02*
G75*
G03*
X128200000Y-149860000I-1200000J0D01*
G01*
X125660000Y-142240000D02*
G75*
G03*
X125660000Y-142240000I-1200000J0D01*
G01*
X128200000Y-116840000D02*
G75*
G03*
X128200000Y-116840000I-1200000J0D01*
G01*
X125660000Y-104140000D02*
G75*
G03*
X125660000Y-104140000I-1200000J0D01*
G01*
X128200000Y-106680000D02*
G75*
G03*
X128200000Y-106680000I-1200000J0D01*
G01*
X128200000Y-132080000D02*
G75*
G03*
X128200000Y-132080000I-1200000J0D01*
G01*
X125660000Y-144780000D02*
G75*
G03*
X125660000Y-144780000I-1200000J0D01*
G01*
X125660000Y-154940000D02*
G75*
G03*
X125660000Y-154940000I-1200000J0D01*
G01*
X128200000Y-154940000D02*
G75*
G03*
X128200000Y-154940000I-1200000J0D01*
G01*
X128200000Y-147320000D02*
G75*
G03*
X128200000Y-147320000I-1200000J0D01*
G01*
X128200000Y-139700000D02*
G75*
G03*
X128200000Y-139700000I-1200000J0D01*
G01*
X128200000Y-144780000D02*
G75*
G03*
X128200000Y-144780000I-1200000J0D01*
G01*
X125660000Y-139700000D02*
G75*
G03*
X125660000Y-139700000I-1200000J0D01*
G01*
X125660000Y-147320000D02*
G75*
G03*
X125660000Y-147320000I-1200000J0D01*
G01*
X128200000Y-152400000D02*
G75*
G03*
X128200000Y-152400000I-1200000J0D01*
G01*
X128200000Y-142240000D02*
G75*
G03*
X128200000Y-142240000I-1200000J0D01*
G01*
X125660000Y-149860000D02*
G75*
G03*
X125660000Y-149860000I-1200000J0D01*
G01*
X125660000Y-152400000D02*
G75*
G03*
X125660000Y-152400000I-1200000J0D01*
G01*
X123120000Y-154940000D02*
G75*
G03*
X123120000Y-154940000I-1200000J0D01*
G01*
X120580000Y-154940000D02*
G75*
G03*
X120580000Y-154940000I-1200000J0D01*
G01*
X123120000Y-149860000D02*
G75*
G03*
X123120000Y-149860000I-1200000J0D01*
G01*
X120580000Y-142240000D02*
G75*
G03*
X120580000Y-142240000I-1200000J0D01*
G01*
X120580000Y-144780000D02*
G75*
G03*
X120580000Y-144780000I-1200000J0D01*
G01*
X123120000Y-139700000D02*
G75*
G03*
X123120000Y-139700000I-1200000J0D01*
G01*
X123120000Y-144780000D02*
G75*
G03*
X123120000Y-144780000I-1200000J0D01*
G01*
X123120000Y-142240000D02*
G75*
G03*
X123120000Y-142240000I-1200000J0D01*
G01*
X120580000Y-139700000D02*
G75*
G03*
X120580000Y-139700000I-1200000J0D01*
G01*
X120580000Y-147320000D02*
G75*
G03*
X120580000Y-147320000I-1200000J0D01*
G01*
X123120000Y-152400000D02*
G75*
G03*
X123120000Y-152400000I-1200000J0D01*
G01*
X120580000Y-152400000D02*
G75*
G03*
X120580000Y-152400000I-1200000J0D01*
G01*
X120580000Y-149860000D02*
G75*
G03*
X120580000Y-149860000I-1200000J0D01*
G01*
X123120000Y-147320000D02*
G75*
G03*
X123120000Y-147320000I-1200000J0D01*
G01*
X123120000Y-116840000D02*
G75*
G03*
X123120000Y-116840000I-1200000J0D01*
G01*
X123120000Y-124460000D02*
G75*
G03*
X123120000Y-124460000I-1200000J0D01*
G01*
X123120000Y-134620000D02*
G75*
G03*
X123120000Y-134620000I-1200000J0D01*
G01*
X120580000Y-119380000D02*
G75*
G03*
X120580000Y-119380000I-1200000J0D01*
G01*
X120580000Y-111760000D02*
G75*
G03*
X120580000Y-111760000I-1200000J0D01*
G01*
X123120000Y-114300000D02*
G75*
G03*
X123120000Y-114300000I-1200000J0D01*
G01*
X120580000Y-116840000D02*
G75*
G03*
X120580000Y-116840000I-1200000J0D01*
G01*
X123120000Y-119380000D02*
G75*
G03*
X123120000Y-119380000I-1200000J0D01*
G01*
X120580000Y-114300000D02*
G75*
G03*
X120580000Y-114300000I-1200000J0D01*
G01*
X120580000Y-127000000D02*
G75*
G03*
X120580000Y-127000000I-1200000J0D01*
G01*
X123120000Y-121920000D02*
G75*
G03*
X123120000Y-121920000I-1200000J0D01*
G01*
X120580000Y-129540000D02*
G75*
G03*
X120580000Y-129540000I-1200000J0D01*
G01*
X120580000Y-121920000D02*
G75*
G03*
X120580000Y-121920000I-1200000J0D01*
G01*
X123120000Y-137160000D02*
G75*
G03*
X123120000Y-137160000I-1200000J0D01*
G01*
X120580000Y-137160000D02*
G75*
G03*
X120580000Y-137160000I-1200000J0D01*
G01*
X120580000Y-134620000D02*
G75*
G03*
X120580000Y-134620000I-1200000J0D01*
G01*
X120580000Y-99060000D02*
G75*
G03*
X120580000Y-99060000I-1200000J0D01*
G01*
X120580000Y-91440000D02*
G75*
G03*
X120580000Y-91440000I-1200000J0D01*
G01*
X123120000Y-93980000D02*
G75*
G03*
X123120000Y-93980000I-1200000J0D01*
G01*
X123120000Y-111760000D02*
G75*
G03*
X123120000Y-111760000I-1200000J0D01*
G01*
X123120000Y-129540000D02*
G75*
G03*
X123120000Y-129540000I-1200000J0D01*
G01*
X123120000Y-127000000D02*
G75*
G03*
X123120000Y-127000000I-1200000J0D01*
G01*
X120580000Y-124460000D02*
G75*
G03*
X120580000Y-124460000I-1200000J0D01*
G01*
X120580000Y-96520000D02*
G75*
G03*
X120580000Y-96520000I-1200000J0D01*
G01*
X123120000Y-99060000D02*
G75*
G03*
X123120000Y-99060000I-1200000J0D01*
G01*
X120580000Y-93980000D02*
G75*
G03*
X120580000Y-93980000I-1200000J0D01*
G01*
X123120000Y-96520000D02*
G75*
G03*
X123120000Y-96520000I-1200000J0D01*
G01*
X123120000Y-104140000D02*
G75*
G03*
X123120000Y-104140000I-1200000J0D01*
G01*
X120580000Y-106680000D02*
G75*
G03*
X120580000Y-106680000I-1200000J0D01*
G01*
X120580000Y-132080000D02*
G75*
G03*
X120580000Y-132080000I-1200000J0D01*
G01*
X120580000Y-109220000D02*
G75*
G03*
X120580000Y-109220000I-1200000J0D01*
G01*
X120580000Y-101600000D02*
G75*
G03*
X120580000Y-101600000I-1200000J0D01*
G01*
X123120000Y-91440000D02*
G75*
G03*
X123120000Y-91440000I-1200000J0D01*
G01*
X123120000Y-101600000D02*
G75*
G03*
X123120000Y-101600000I-1200000J0D01*
G01*
X123120000Y-109220000D02*
G75*
G03*
X123120000Y-109220000I-1200000J0D01*
G01*
X120580000Y-104140000D02*
G75*
G03*
X120580000Y-104140000I-1200000J0D01*
G01*
X123120000Y-106680000D02*
G75*
G03*
X123120000Y-106680000I-1200000J0D01*
G01*
X123120000Y-132080000D02*
G75*
G03*
X123120000Y-132080000I-1200000J0D01*
G01*
X156140000Y-127000000D02*
G75*
G03*
X156140000Y-127000000I-1200000J0D01*
G01*
X156140000Y-134620000D02*
G75*
G03*
X156140000Y-134620000I-1200000J0D01*
G01*
X156140000Y-144780000D02*
G75*
G03*
X156140000Y-144780000I-1200000J0D01*
G01*
X153600000Y-129540000D02*
G75*
G03*
X153600000Y-129540000I-1200000J0D01*
G01*
X153600000Y-121920000D02*
G75*
G03*
X153600000Y-121920000I-1200000J0D01*
G01*
X156140000Y-124460000D02*
G75*
G03*
X156140000Y-124460000I-1200000J0D01*
G01*
X153600000Y-127000000D02*
G75*
G03*
X153600000Y-127000000I-1200000J0D01*
G01*
X156140000Y-129540000D02*
G75*
G03*
X156140000Y-129540000I-1200000J0D01*
G01*
X153600000Y-124460000D02*
G75*
G03*
X153600000Y-124460000I-1200000J0D01*
G01*
X153600000Y-137160000D02*
G75*
G03*
X153600000Y-137160000I-1200000J0D01*
G01*
X156140000Y-132080000D02*
G75*
G03*
X156140000Y-132080000I-1200000J0D01*
G01*
X153600000Y-139700000D02*
G75*
G03*
X153600000Y-139700000I-1200000J0D01*
G01*
X153600000Y-132080000D02*
G75*
G03*
X153600000Y-132080000I-1200000J0D01*
G01*
X156140000Y-147320000D02*
G75*
G03*
X156140000Y-147320000I-1200000J0D01*
G01*
X153600000Y-147320000D02*
G75*
G03*
X153600000Y-147320000I-1200000J0D01*
G01*
X153600000Y-144780000D02*
G75*
G03*
X153600000Y-144780000I-1200000J0D01*
G01*
X153600000Y-109220000D02*
G75*
G03*
X153600000Y-109220000I-1200000J0D01*
G01*
X153600000Y-101600000D02*
G75*
G03*
X153600000Y-101600000I-1200000J0D01*
G01*
X156140000Y-104140000D02*
G75*
G03*
X156140000Y-104140000I-1200000J0D01*
G01*
X156140000Y-121920000D02*
G75*
G03*
X156140000Y-121920000I-1200000J0D01*
G01*
X156140000Y-139700000D02*
G75*
G03*
X156140000Y-139700000I-1200000J0D01*
G01*
X156140000Y-137160000D02*
G75*
G03*
X156140000Y-137160000I-1200000J0D01*
G01*
X153600000Y-134620000D02*
G75*
G03*
X153600000Y-134620000I-1200000J0D01*
G01*
X153600000Y-106680000D02*
G75*
G03*
X153600000Y-106680000I-1200000J0D01*
G01*
X156140000Y-109220000D02*
G75*
G03*
X156140000Y-109220000I-1200000J0D01*
G01*
X153600000Y-104140000D02*
G75*
G03*
X153600000Y-104140000I-1200000J0D01*
G01*
X156140000Y-106680000D02*
G75*
G03*
X156140000Y-106680000I-1200000J0D01*
G01*
X156140000Y-114300000D02*
G75*
G03*
X156140000Y-114300000I-1200000J0D01*
G01*
X153600000Y-116840000D02*
G75*
G03*
X153600000Y-116840000I-1200000J0D01*
G01*
X153600000Y-142240000D02*
G75*
G03*
X153600000Y-142240000I-1200000J0D01*
G01*
X153600000Y-119380000D02*
G75*
G03*
X153600000Y-119380000I-1200000J0D01*
G01*
X153600000Y-111760000D02*
G75*
G03*
X153600000Y-111760000I-1200000J0D01*
G01*
X156140000Y-101600000D02*
G75*
G03*
X156140000Y-101600000I-1200000J0D01*
G01*
X156140000Y-111760000D02*
G75*
G03*
X156140000Y-111760000I-1200000J0D01*
G01*
X156140000Y-119380000D02*
G75*
G03*
X156140000Y-119380000I-1200000J0D01*
G01*
X153600000Y-114300000D02*
G75*
G03*
X153600000Y-114300000I-1200000J0D01*
G01*
X156140000Y-116840000D02*
G75*
G03*
X156140000Y-116840000I-1200000J0D01*
G01*
X156140000Y-142240000D02*
G75*
G03*
X156140000Y-142240000I-1200000J0D01*
G01*
X115500000Y-147320000D02*
G75*
G03*
X115500000Y-147320000I-1200000J0D01*
G01*
X112960000Y-147320000D02*
G75*
G03*
X112960000Y-147320000I-1200000J0D01*
G01*
X112960000Y-144780000D02*
G75*
G03*
X112960000Y-144780000I-1200000J0D01*
G01*
X115500000Y-144780000D02*
G75*
G03*
X115500000Y-144780000I-1200000J0D01*
G01*
X112960000Y-142240000D02*
G75*
G03*
X112960000Y-142240000I-1200000J0D01*
G01*
X115500000Y-142240000D02*
G75*
G03*
X115500000Y-142240000I-1200000J0D01*
G01*
X112960000Y-129540000D02*
G75*
G03*
X112960000Y-129540000I-1200000J0D01*
G01*
X112960000Y-121920000D02*
G75*
G03*
X112960000Y-121920000I-1200000J0D01*
G01*
X115500000Y-124460000D02*
G75*
G03*
X115500000Y-124460000I-1200000J0D01*
G01*
X112960000Y-127000000D02*
G75*
G03*
X112960000Y-127000000I-1200000J0D01*
G01*
X115500000Y-129540000D02*
G75*
G03*
X115500000Y-129540000I-1200000J0D01*
G01*
X112960000Y-124460000D02*
G75*
G03*
X112960000Y-124460000I-1200000J0D01*
G01*
X115500000Y-127000000D02*
G75*
G03*
X115500000Y-127000000I-1200000J0D01*
G01*
X115500000Y-134620000D02*
G75*
G03*
X115500000Y-134620000I-1200000J0D01*
G01*
X112960000Y-137160000D02*
G75*
G03*
X112960000Y-137160000I-1200000J0D01*
G01*
X112960000Y-139700000D02*
G75*
G03*
X112960000Y-139700000I-1200000J0D01*
G01*
X112960000Y-132080000D02*
G75*
G03*
X112960000Y-132080000I-1200000J0D01*
G01*
X115500000Y-121920000D02*
G75*
G03*
X115500000Y-121920000I-1200000J0D01*
G01*
X115500000Y-132080000D02*
G75*
G03*
X115500000Y-132080000I-1200000J0D01*
G01*
X115500000Y-139700000D02*
G75*
G03*
X115500000Y-139700000I-1200000J0D01*
G01*
X112960000Y-134620000D02*
G75*
G03*
X112960000Y-134620000I-1200000J0D01*
G01*
X115500000Y-137160000D02*
G75*
G03*
X115500000Y-137160000I-1200000J0D01*
G01*
X112960000Y-119380000D02*
G75*
G03*
X112960000Y-119380000I-1200000J0D01*
G01*
X112960000Y-111760000D02*
G75*
G03*
X112960000Y-111760000I-1200000J0D01*
G01*
X115500000Y-114300000D02*
G75*
G03*
X115500000Y-114300000I-1200000J0D01*
G01*
X112960000Y-116840000D02*
G75*
G03*
X112960000Y-116840000I-1200000J0D01*
G01*
X115500000Y-119380000D02*
G75*
G03*
X115500000Y-119380000I-1200000J0D01*
G01*
X112960000Y-114300000D02*
G75*
G03*
X112960000Y-114300000I-1200000J0D01*
G01*
X115500000Y-116840000D02*
G75*
G03*
X115500000Y-116840000I-1200000J0D01*
G01*
X115500000Y-111760000D02*
G75*
G03*
X115500000Y-111760000I-1200000J0D01*
G01*
X112960000Y-106680000D02*
G75*
G03*
X112960000Y-106680000I-1200000J0D01*
G01*
X115500000Y-109220000D02*
G75*
G03*
X115500000Y-109220000I-1200000J0D01*
G01*
X112960000Y-109220000D02*
G75*
G03*
X112960000Y-109220000I-1200000J0D01*
G01*
X115500000Y-106680000D02*
G75*
G03*
X115500000Y-106680000I-1200000J0D01*
G01*
X112960000Y-101600000D02*
G75*
G03*
X112960000Y-101600000I-1200000J0D01*
G01*
X112960000Y-104140000D02*
G75*
G03*
X112960000Y-104140000I-1200000J0D01*
G01*
X115500000Y-104140000D02*
G75*
G03*
X115500000Y-104140000I-1200000J0D01*
G01*
X115500000Y-101600000D02*
G75*
G03*
X115500000Y-101600000I-1200000J0D01*
G01*
%TD*%
M02*
